<?xml version="1.0" ?><!-- Uploaded to: SVG Repo, www.svgrepo.com, Generator: SVG Repo Mixer Tools -->
<svg width="800px" height="800px" viewBox="0 0 128 128" data-name="Слой 1" id="Слой_1" xmlns="http://www.w3.org/2000/svg"><defs><style>.cls-1{fill:#ffffff;}.cls-2{fill:#bebebe;}.cls-3{fill:#9f9f9f;}.cls-4{fill:#404040;}</style></defs><title/><rect class="cls-1" height="88" rx="10" ry="10" width="92" x="18" y="2"/><path class="cls-2" d="M110,22V12A10,10,0,0,0,100,2H28A10,10,0,0,0,18,12V22Z"/><circle class="cls-3" cx="64" cy="118" r="8"/><path class="cls-4" d="M64,128a10,10,0,1,1,10-10A10,10,0,0,1,64,128Zm0-16a6,6,0,1,0,6,6A6,6,0,0,0,64,112Z"/><path class="cls-4" d="M126,120H72a2,2,0,0,1,0-4h54a2,2,0,0,1,0,4Z"/><path class="cls-4" d="M56,120H2a2,2,0,0,1,0-4H56a2,2,0,0,1,0,4Z"/><path class="cls-4" d="M64,112a2,2,0,0,1-2-2V90.9a2,2,0,0,1,4,0V110A2,2,0,0,1,64,112Z"/><path class="cls-4" d="M110,24H18a2,2,0,0,1,0-4h92a2,2,0,0,1,0,4Z"/><path class="cls-4" d="M97.83,10.39a2,2,0,1,0,2,2,2,2,0,0,0-2-2Z"/><path class="cls-4" d="M89.89,10.39a2,2,0,1,0,2,2,2,2,0,0,0-2-2Z"/><path class="cls-4" d="M82,10.39a2,2,0,1,0,2,2,2,2,0,0,0-2-2Z"/><path class="cls-4" d="M54.34,67.73a2,2,0,0,1-1.41-3.41L72.24,45a2,2,0,0,1,2.83,2.83L55.76,67.15A2,2,0,0,1,54.34,67.73Z"/><path class="cls-4" d="M50.08,81a11,11,0,0,1-7.79-18.8L49.49,55a10.93,10.93,0,0,1,5.79-3A2,2,0,1,1,56,55.91a6.94,6.94,0,0,0-3.68,1.93L45.12,65A7,7,0,0,0,55,75l7.19-7.19a7,7,0,0,0,1.93-3.68,2,2,0,0,1,3.93.72,10.93,10.93,0,0,1-3,5.79l-7.19,7.19A11,11,0,0,1,50.08,81Z"/><path class="cls-4" d="M72.36,60.21a2,2,0,0,1-.36-4,6.94,6.94,0,0,0,3.68-1.93l7.19-7.19A7,7,0,0,0,73,37.2l-7.19,7.19a7,7,0,0,0-1.93,3.68,2,2,0,1,1-3.93-.72,10.93,10.93,0,0,1,3-5.79l7.19-7.19A11,11,0,0,1,85.71,49.95l-7.2,7.19a10.93,10.93,0,0,1-5.79,3A2,2,0,0,1,72.36,60.21Z"/><path class="cls-4" d="M100,92H28A12,12,0,0,1,16,80V12A12,12,0,0,1,28,0h72a12,12,0,0,1,12,12V80A12,12,0,0,1,100,92ZM28,4a8,8,0,0,0-8,8V80a8,8,0,0,0,8,8h72a8,8,0,0,0,8-8V12a8,8,0,0,0-8-8Z"/></svg>